<svg width="24" height="24" viewBox="0 0 24 24" fill="none" xmlns="http://www.w3.org/2000/svg">
<g clip-path="url(#clip0_78_50)">
<path fill-rule="evenodd" clip-rule="evenodd" d="M12 0.296021C5.373 0.296021 0 5.66802 0 12.296C0 17.598 3.438 22.096 8.206 23.683C8.806 23.794 9.026 23.423 9.026 23.106C9.026 22.82 9.015 21.875 9.01 20.872C5.672 21.598 4.967 19.456 4.967 19.456C4.421 18.069 3.635 17.7 3.635 17.7C2.546 16.955 3.717 16.971 3.717 16.971C4.922 17.056 5.556 18.208 5.556 18.208C6.626 20.042 8.363 19.512 9.048 19.205C9.156 18.429 9.467 17.9 9.81 17.6C7.145 17.297 4.343 16.268 4.343 11.67C4.343 10.36 4.812 9.28902 5.58 8.44902C5.455 8.14602 5.044 6.92602 5.696 5.27302C5.696 5.27302 6.704 4.95102 8.997 6.50302C9.954 6.23702 10.98 6.10402 12 6.09902C13.02 6.10402 14.047 6.23702 15.006 6.50302C17.296 4.95002 18.303 5.27302 18.303 5.27302C18.956 6.92602 18.545 8.14602 18.421 8.44902C19.19 9.28902 19.656 10.36 19.656 11.67C19.656 16.279 16.849 17.294 14.177 17.591C14.607 17.963 14.991 18.694 14.991 19.813C14.991 21.419 14.977 22.711 14.977 23.106C14.977 23.425 15.193 23.8 15.801 23.682C20.567 22.093 24.001 17.597 24.001 12.297C24 5.66902 18.627 0.296021 12 0.296021Z" fill="white"/>
<path d="M4.54503 17.526C4.51903 17.586 4.42503 17.604 4.33903 17.563C4.25203 17.524 4.20303 17.442 4.23103 17.383C4.25703 17.322 4.35103 17.305 4.43803 17.346C4.52503 17.384 4.57503 17.466 4.54503 17.526Z" fill="white"/>
<path d="M5.03085 18.068C4.97385 18.121 4.86184 18.096 4.78584 18.013C4.70684 17.929 4.69285 17.817 4.75085 17.764C4.80985 17.711 4.91785 17.736 4.99685 17.82C5.07585 17.903 5.09085 18.014 5.03085 18.068Z" fill="white"/>
<path d="M5.50392 18.759C5.42992 18.81 5.30992 18.762 5.23592 18.656C5.16192 18.549 5.16192 18.421 5.23792 18.37C5.31192 18.319 5.43092 18.365 5.50592 18.471C5.57892 18.579 5.57892 18.707 5.50392 18.759Z" fill="white"/>
<path d="M6.15195 19.427C6.08595 19.5 5.94595 19.48 5.84395 19.381C5.73895 19.284 5.70995 19.147 5.77595 19.074C5.84295 19.001 5.98395 19.022 6.08695 19.12C6.19095 19.217 6.22195 19.355 6.15195 19.427Z" fill="white"/>
<path d="M7.04707 19.814C7.01807 19.908 6.88307 19.951 6.74707 19.911C6.61107 19.87 6.52207 19.76 6.55007 19.665C6.57807 19.57 6.71407 19.526 6.85107 19.569C6.98607 19.609 7.07507 19.719 7.04707 19.814Z" fill="white"/>
<path d="M8.02918 19.886C8.03218 19.985 7.91718 20.067 7.77418 20.069C7.63118 20.072 7.51418 19.992 7.51318 19.895C7.51318 19.795 7.62618 19.714 7.76918 19.711C7.91218 19.708 8.02918 19.788 8.02918 19.886Z" fill="white"/>
<path d="M8.94302 19.7311C8.96002 19.8271 8.86102 19.9271 8.71902 19.9531C8.58002 19.9791 8.45102 19.9191 8.43302 19.8231C8.41602 19.7241 8.51702 19.6251 8.65602 19.5991C8.79702 19.5741 8.92502 19.6321 8.94302 19.7311Z" fill="white"/>
</g>
<defs>
<clipPath id="clip0_78_50">
<rect width="24" height="24" fill="white"/>
</clipPath>
</defs>
</svg>
