<svg width="24" height="24" viewBox="0 0 24 24" fill="none" xmlns="http://www.w3.org/2000/svg">
<g clip-path="url(#clip0_78_53)">
<path d="M23.498 6.18602C23.222 5.14702 22.409 4.32802 21.376 4.05002C19.505 3.54602 12 3.54602 12 3.54602C12 3.54602 4.495 3.54602 2.623 4.05002C1.591 4.32802 0.778 5.14602 0.502 6.18602C0 8.07002 0 12 0 12C0 12 0 15.93 0.502 17.814C0.778 18.853 1.591 19.672 2.624 19.95C4.495 20.454 12 20.454 12 20.454C12 20.454 19.505 20.454 21.377 19.95C22.409 19.672 23.222 18.854 23.499 17.814C24 15.93 24 12 24 12C24 12 24 8.07002 23.498 6.18602ZM9.546 15.569V8.43102L15.818 12L9.546 15.569Z" fill="white"/>
</g>
<defs>
<clipPath id="clip0_78_53">
<rect width="24" height="24" fill="white"/>
</clipPath>
</defs>
</svg>
